<svg width="77" height="68" viewBox="0 0 77 68" fill="none" xmlns="http://www.w3.org/2000/svg">
<g clip-path="url(#clip0_27_15)">
<path d="M64.75 68H3.5C2.57174 68 1.6815 67.6313 1.02513 66.9749C0.368749 66.3185 0 65.4283 0 64.5C0 63.5717 0.368749 62.6815 1.02513 62.0251C1.6815 61.3688 2.57174 61 3.5 61H64.75C65.6783 61 66.5685 61.3688 67.2249 62.0251C67.8813 62.6815 68.25 63.5717 68.25 64.5C68.25 65.4283 67.8813 66.3185 67.2249 66.9749C66.5685 67.6313 65.6783 68 64.75 68ZM44.33 56.38H23.92C21.5486 56.3919 19.1983 55.935 17.0041 55.0358C14.8098 54.1365 12.8149 52.8125 11.1339 51.1398C9.45286 49.4672 8.11893 47.4789 7.20873 45.2892C6.29852 43.0994 5.82997 40.7514 5.83 38.38V3.5C5.83 2.57174 6.19875 1.6815 6.85513 1.02513C7.5115 0.36875 8.40174 7.35265e-07 9.33 7.35265e-07H70.58C71.4221 -0.00263097 72.2565 0.160968 73.0353 0.481419C73.8141 0.801871 74.522 1.27287 75.1184 1.86743C75.7148 2.46199 76.188 3.16841 76.5109 3.9462C76.8338 4.72399 77 5.55786 77 6.4V12.58C76.9921 15.7273 75.7355 18.7428 73.5063 20.9646C71.2771 23.1863 68.2573 24.4327 65.11 24.43H62.42V38.36C62.4184 40.7284 61.9495 43.0732 61.04 45.26C59.6626 48.5554 57.3411 51.3697 54.3676 53.3484C51.3941 55.3272 47.9017 56.382 44.33 56.38V56.38ZM12.83 7V38.36C12.8264 39.8085 13.111 41.2431 13.6673 42.5805C14.2235 43.9179 15.0403 45.1313 16.07 46.15C17.1019 47.1779 18.3264 47.9923 19.6734 48.5466C21.0204 49.1008 22.4635 49.384 23.92 49.38H44.33C45.7911 49.3718 47.2358 49.0727 48.58 48.5C50.602 47.674 52.3323 46.2647 53.5504 44.4517C54.7686 42.6388 55.4194 40.5042 55.42 38.32V7H12.83ZM62.42 17.43H65.11C65.7526 17.4322 66.3893 17.307 66.9832 17.0615C67.5771 16.8161 68.1165 16.4553 68.57 16C69.0236 15.5535 69.3837 15.0211 69.6292 14.4339C69.8748 13.8467 70.0008 13.2165 70 12.58V7H62.42V17.43Z" fill="#F4DFBA"/>
</g>
<defs>
<clipPath id="clip0_27_15">
<rect width="77" height="68" fill="white"/>
</clipPath>
</defs>
</svg>
